<?xml version="1.0" encoding="UTF-8"?>
<svg width="64px" height="31px" viewBox="0 0 64 31" version="1.1" xmlns="http://www.w3.org/2000/svg" xmlns:xlink="http://www.w3.org/1999/xlink">
    <!-- Generator: Sketch 52.6 (67491) - http://www.bohemiancoding.com/sketch -->
    <title>Fill 1</title>
    <desc>Created with Sketch.</desc>
    <g id="NEW-WEBSITE-PAGES" stroke="none" stroke-width="1" fill="none" fill-rule="evenodd">
        <g id="INDEX" transform="translate(-56.000000, -52.000000)" fill="#211551">
            <g id="Group-2" transform="translate(56.000000, 46.000000)">
                <path d="M31.9878261,19.36296 L25.6026362,19.36296 L32.0427461,15.1809174 L31.9878261,19.36296 Z M59.10351,23.819654 C58.9861641,21.2904505 57.5730709,19.3074453 54.8735666,19.3054366 L44.7999451,19.3054366 L44.7999451,15.9685315 L59.1155924,15.9685315 L59.1155924,10.8723234 L39.5069322,10.8723234 L39.5069322,19.3633252 L39.5069322,19.36296 L37.2517313,19.36296 L37.2603354,10.8723234 L30.7638409,10.8723234 L17.0074628,19.36296 L10.0761844,19.36296 L10.0761844,15.9685315 L18.2618371,15.9685315 L26.6470327,10.8723234 L4.88440756,10.8723234 L4.88440756,31.0232273 L10.0761844,31.0232273 L10.0761844,24.4547854 L17.3146491,24.4547854 L17.3146491,24.4591681 L32.0427461,24.4591681 L32.0427461,32.127494 L37.3068344,32.127494 L37.3068344,24.4591681 L53.91393,24.4591681 L53.91393,26.6603969 L39.552882,26.6603969 L39.552882,32.127494 L54.8735666,32.127494 C57.6462976,32.127494 59.1097343,30.0151982 59.1097343,27.4197058 L59.10351,23.819654 Z M64,6 L0,6 L0,35.8955507 L14.9609581,35.8955507 L14.9609581,29.3309436 L27.1583386,29.3318567 L27.1583386,37 L54.8732004,37 C60.1581583,37 63.9939588,32.9693444 63.9939588,27.4160535 L64,6 Z M61.3220976,8.67109456 L61.3220976,18.1695777 L58.4926158,18.1695777 C60.149005,19.2984973 61.1937677,21.2573973 61.3078184,23.717938 L61.3100152,23.7668785 L61.3164225,27.4160535 C61.3164225,31.4879799 58.6668955,34.3287228 54.8732004,34.3287228 L29.8358748,34.3287228 L29.8358748,26.6603969 L15.2167026,26.6603969 L15.2167026,26.6561968 L12.2830557,26.6561968 L12.2830557,33.2246387 L2.67753626,33.2246387 L2.67753626,8.67109456 L61.3220976,8.67109456 Z" id="Fill-1"></path>
            </g>
        </g>
    </g>
</svg>